<!-- <svg xmlns="http://www.w3.org/2000/svg" viewBox="0 0 24 24" width="24" height="24" color="#000000" fill="none">
    <circle cx="12" cy="12" r="10" stroke="currentColor" stroke-width="1.5" />
    <path d="M9.5 11.1998V12.8002C9.5 14.3195 9.5 15.0791 9.95576 15.3862C10.4115 15.6932 11.0348 15.3535 12.2815 14.6741L13.7497 13.8738C15.2499 13.0562 16 12.6474 16 12C16 11.3526 15.2499 10.9438 13.7497 10.1262L12.2815 9.32594C11.0348 8.6465 10.4115 8.30678 9.95576 8.61382C9.5 8.92086 9.5 9.6805 9.5 11.1998Z" fill="currentColor" />
</svg> -->

<svg xmlns="http://www.w3.org/2000/svg" viewBox="0 0 24 24" width="24" height="24" color="#000000" fill="black">
    <path d="M18.8906 12.846C18.5371 14.189 16.8667 15.138 13.5257 17.0361C10.296 18.8709 8.6812 19.7884 7.37983 19.4196C6.8418 19.2671 6.35159 18.9776 5.95624 18.5787C5 17.6139 5 15.7426 5 12C5 8.2574 5 6.3861 5.95624 5.42132C6.35159 5.02245 6.8418 4.73288 7.37983 4.58042C8.6812 4.21165 10.296 5.12907 13.5257 6.96393C16.8667 8.86197 18.5371 9.811 18.8906 11.154C19.0365 11.7084 19.0365 12.2916 18.8906 12.846Z" stroke="currentColor" stroke-width="1.5" stroke-linejoin="round" />
</svg>